# xmcd
#
# Track frame offsets: 
#        150
#        17235
#        38904
#        54257
#        75478
#        92455
#        118742
#        133556
#        142914
#        168406
#        186729
#        206725
#        225115
#
# Disc length: 3199 seconds
#
# Revision: 0
# Processed by: cddbd v1.5.2PL0 Copyright (c) Steve Scherf et al.
# Submitted via: ExactAudioCopyFreeDBPlugin 1.0
#
DISCID=a40c7d0d
DTITLE=Bruce Springsteen - Western Stars Songs From The Film
DYEAR=2019
DGENRE=Country
TTITLE0=Hitch Hikin
TTITLE1=The Wayfarer
TTITLE2=Tucson Train
TTITLE3=Western Stars
TTITLE4=Sleepy Joe s Café
TTITLE5=Chasin Wild Horses
TTITLE6=Sundown
TTITLE7=Somewhere North Of Nashville
TTITLE8=Stones
TTITLE9=There Goes My Miracle
TTITLE10=Hello Sunshine
TTITLE11=Moonlight Motel
TTITLE12=Rhinestone Cowboy
EXTD=
EXTT0=
EXTT1=
EXTT2=
EXTT3=
EXTT4=
EXTT5=
EXTT6=
EXTT7=
EXTT8=
EXTT9=
EXTT10=
EXTT11=
EXTT12=
PLAYORDER=
